<?xml version="1.0" encoding="utf-8"?>
<!-- Generator: Adobe Illustrator 20.0.0, SVG Export Plug-In . SVG Version: 6.00 Build 0)  -->
<svg version="1.1" id="Layer_1" xmlns="http://www.w3.org/2000/svg" xmlns:xlink="http://www.w3.org/1999/xlink" x="0px" y="0px"
	 width="48px" height="48px" viewBox="0 0 48 48" style="enable-background:new 0 0 48 48;" xml:space="preserve">
<style type="text/css">
	.st0{fill:#5EC08F;}
	.st1{fill:#FFD600;}
	.st2{fill:#FFBA57;}
	.st3{fill:#41A571;}
	.st4{fill:#F9A825;}
	.st5{fill:#7E8CCF;}
	.st6{fill:#C5CAE9;}
</style>
<g>
	<path class="st0" d="M25.8,28.3c0.6,2.5-0.5,3.8-2.9,3.8l-2.5,0l-3.9-8.5c-0.4-1.2,0.7-2.9,0.7-2.9c0.4-0.7,1.3-1.6,2.7-1.6
		c1.4,0,2.6,0.9,3.1,2.2l2.4,5.8C25.6,27.3,25.7,27.7,25.8,28.3z M43.5,27L41,21.2C40.6,19.9,39.3,19,38,19c-1.4,0-2.2,0.9-2.7,1.6
		c0,0-1.1,1.8-0.7,2.9l3.8,8.5l2.5,0c2.4,0,3.4-1.3,2.9-3.8C43.7,27.7,43.6,27.3,43.5,27z"/>
	<path class="st1" d="M3,26c0,0,2.4,6,14,6c7.1,0,30,0,30,0v7H17h-6.1C5.4,39,1,35.6,1,26l0,0H3z"/>
	<path class="st2" d="M17.5,11c1.9,0,3.5,1.6,3.5,3.5c0,1.9-1.6,3.5-3.5,3.5S14,16.4,14,14.5C14,12.6,15.6,11,17.5,11 M35.5,11
		c-1.9,0-3.5,1.6-3.5,3.5c0,1.9,1.6,3.5,3.5,3.5s3.5-1.6,3.5-3.5C39,12.6,37.5,11,35.5,11"/>
	<path class="st3" d="M18.4,23.1l3.9,8.6L20.5,32l-3.2-7L18.4,23.1z M35.3,25l3.2,7l1.8-0.3l-3.9-8.6L35.3,25z"/>
	<path class="st4" d="M12.6,31.7L12.6,31.7c-0.7-0.5-0.8-1.4-0.4-2.1l5-9c0.5-0.7,1.4-0.8,2.1-0.4l0,0c0.7,0.5,0.8,1.4,0.4,2.1l-5,9
		C14.3,32,13.3,32.2,12.6,31.7z M21,39.9c0.8-0.3,1.2-1.2,0.9-1.9l-2.2-6h3.8c0.8,0,1.5-0.7,1.5-1.5S24.3,29,23.5,29h-6
		c-0.5,0-1,0.2-1.2,0.6C16,30,15.9,30.6,16.1,31l3,8c0.2,0.6,0.8,1,1.4,1C20.7,40,20.9,40,21,39.9z M32.7,31.4l5-9
		c0.5-0.7,0.3-1.6-0.4-2.1l0,0c-0.7-0.5-1.6-0.3-2.1,0.4l-5,9c-0.5,0.7-0.3,1.6,0.4,2.1l0,0C31.3,32.2,32.3,32,32.7,31.4z M39,39.9
		c0.8-0.3,1.2-1.2,0.9-1.9l-2.2-6h3.8c0.8,0,1.5-0.7,1.5-1.5S42.3,29,41.5,29h-6c-0.5,0-1,0.2-1.2,0.6C34,30,33.9,30.6,34.1,31l3,8
		c0.2,0.6,0.8,1,1.4,1C38.7,40,38.9,40,39,39.9z"/>
	<path class="st5" d="M44,36c0,0-1,2-4,2s-4-2-4-2s-1,2-4,2s-4-2-4-2s-1,2-4,2s-4-2-4-2s-1,2-4,2s-4-2-4-2s-1,2-4,2s-4-2-4-2
		s-0.8,1.5-3,1.9V44h46v-6.1C44.8,37.5,44,36,44,36z"/>
	<path class="st6" d="M44,38c0,0-1,2-4,2s-4-2-4-2s-1,2-4,2s-4-2-4-2s-1,2-4,2s-4-2-4-2s-1,2-4,2s-4-2-4-2s-1,2-4,2s-4-2-4-2
		s-0.8,1.5-3,1.9V44h46v-4.1C44.8,39.5,44,38,44,38z"/>
</g>
</svg>
