<?xml version="1.0" encoding="utf-8"?>
<!-- Generator: Adobe Illustrator 20.0.0, SVG Export Plug-In . SVG Version: 6.00 Build 0)  -->
<svg version="1.1" id="Layer_1" xmlns="http://www.w3.org/2000/svg" xmlns:xlink="http://www.w3.org/1999/xlink" x="0px" y="0px"
	 width="48px" height="48px" viewBox="0 0 48 48" style="enable-background:new 0 0 48 48;" xml:space="preserve">
<style type="text/css">
	.st0{fill:#FFBA57;}
	.st1{fill:#5C6BC0;}
	.st2{fill:#E5D9C5;}
	.st3{fill:#2D4C5C;}
	.st4{fill:#FF66A1;}
</style>
<g>
	<path class="st0" d="M39.4,24.3L27,15c-1.4-1.4-3.6-1.4-4.9,0l-8,8c-0.6,0.6-0.9,1.3-1,2c0,0,0,0,0,0l-1.2,8L7,30.3
		C6,29.7,4.8,30,4.3,31C3.7,32,4,33.2,5,33.7l7,4c0.3,0.2,0.6,0.3,1,0.3c0.3,0,0.5-0.1,0.8-0.2c0.6-0.2,1-0.7,1.2-1.3l2.4-7.4
		l5.9,2.5l-3.9,6.3c-0.6,0.9-0.3,2.2,0.6,2.8c0.3,0.2,0.7,0.3,1.1,0.3c0.7,0,1.3-0.3,1.7-0.9l5-8c0.6-0.9,0.3-2.2-0.6-2.8l-5.8-3.6
		L27,20l6.2,3.5l4.4,3.2c0.3,0.2,0.6,0.3,0.9,0.3c0.4,0,0.9-0.2,1.2-0.6C40.2,25.8,40.1,24.8,39.4,24.3z"/>
	<path class="st1" d="M40.5,16c1.9,0,3.5,1.6,3.5,3.5S42.4,23,40.5,23c-1.9,0-3.5-1.6-3.5-3.5S38.6,16,40.5,16"/>
	<path class="st0" d="M31,9.5c0,1.9-1.6,3.5-3.5,3.5c-1.9,0-3.5-1.6-3.5-3.5S25.6,6,27.5,6C29.4,6,31,7.6,31,9.5"/>
	<path class="st2" d="M44,40c-1.1,0-2-0.3-2.6-0.6c-0.9-0.5-2-0.5-2.8,0C38,39.7,37.1,40,36,40s-2-0.3-2.6-0.6c-0.9-0.5-2-0.5-2.8,0
		C30,39.7,29.1,40,28,40s-2-0.3-2.6-0.6c-0.9-0.5-2-0.5-2.8,0C22,39.7,21.1,40,20,40s-2-0.3-2.6-0.6c-0.9-0.5-2-0.5-2.8,0
		C14,39.7,13.1,40,12,40s-2-0.3-2.6-0.6c-0.9-0.5-2-0.5-2.8,0C6,39.7,5.1,40,4,40v4h40V40z"/>
	<path class="st3" d="M16,21l-2,2c-0.6,0.6-0.9,1.3-1,2c0.5,0,5,0.1,5,2l-0.6,1.9c0.6-0.2,1.1-0.4,1.6-0.9l2-2L16,21z"/>
	<path class="st4" d="M25.6,15.7C26.1,14.8,27,15,27,15c-1.4-1.4-3.6-1.4-4.9,0l-2.5,2.5l4.9,5L27,20C26.3,19.5,24,18.1,25.6,15.7z"
		/>
</g>
</svg>
