<?xml version="1.0" encoding="utf-8"?>
<!-- Generator: Adobe Illustrator 20.0.0, SVG Export Plug-In . SVG Version: 6.00 Build 0)  -->
<svg version="1.1" id="Layer_1" xmlns="http://www.w3.org/2000/svg" xmlns:xlink="http://www.w3.org/1999/xlink" x="0px" y="0px"
	 width="48px" height="48px" viewBox="0 0 48 48" style="enable-background:new 0 0 48 48;" xml:space="preserve">
<style type="text/css">
	.st0{fill:#FFBA57;}
	.st1{fill:#FF754C;}
	.st2{fill:#7E8CCF;}
	.st3{fill:#E5D9C5;}
	.st4{fill:#455A64;}
</style>
<g>
	<path class="st0" d="M41.7,12.6c-0.5-0.6-1.5-0.8-2.1-0.2L35,16.7l-5.1-3.4l-6.3-3.1C23.4,10.1,23.2,10,23,10c0,0,0,0,0,0L8.4,10
		c-0.8,0.1-1.4,0.8-1.4,1.6C7,12.4,7.7,13,8.5,13c0,0,0.1,0,0.1,0l11.2,1L17,21l-3.3,7.8c-0.4,0.7-0.1,1.6,0.7,2
		c0.2,0.1,0.4,0.2,0.7,0.2c0.6,0,1.1-0.3,1.3-0.8l5.1-7.1l0,0l-5.8,15.8c-0.3,0.8,0,1.6,0.8,2C16.6,41,16.8,41,17,41
		c0.6,0,1.1-0.3,1.4-0.9L25.5,25l3.8-7.4l5.1,2.2c0.2,0.1,0.5,0.2,0.8,0.2c0.3,0,0.7-0.1,0.9-0.3l5.4-5
		C42.1,14.1,42.2,13.2,41.7,12.6z"/>
	<path class="st0" d="M27.5,2C29.4,2,31,3.6,31,5.5S29.4,9,27.5,9S24,7.4,24,5.5S25.6,2,27.5,2"/>
	<path class="st1" d="M34.4,16.3l-4.5-2.9l-6.3-3.1C23.4,10.1,23.2,10,23,10c0,0,0,0,0,0l-6,0v3.7l2.8,0.2L17,21l8.5,4l3.8-7.4
		l3.6,1.6L34.4,16.3z"/>
	<g>
		<g>
			<polygon class="st2" points="17,21 14.3,27.2 17.4,28.7 21.4,23.1 			"/>
		</g>
		<g>
			<polygon class="st2" points="25.5,25 21.4,23.1 19.1,29.5 22.7,31 			"/>
		</g>
	</g>
	<path class="st3" d="M44,40c-1.1,0-2-0.3-2.6-0.6c-0.9-0.5-2-0.5-2.8,0C38,39.7,37.1,40,36,40s-2-0.3-2.6-0.6c-0.9-0.5-2-0.5-2.8,0
		C30,39.7,29.1,40,28,40s-2-0.3-2.6-0.6c-0.9-0.5-2-0.5-2.8,0C22,39.7,21.1,40,20,40s-2-0.3-2.6-0.6c-0.9-0.5-2-0.5-2.8,0
		C14,39.7,13.1,40,12,40s-2-0.3-2.6-0.6c-0.9-0.5-2-0.5-2.8,0C6,39.7,5.1,40,4,40v4h40V40z"/>
	<path class="st4" d="M29.5,33c1.9,0,3.5,1.6,3.5,3.5S31.4,40,29.5,40c-1.9,0-3.5-1.6-3.5-3.5S27.5,33,29.5,33"/>
</g>
</svg>
