<?xml version="1.0" encoding="utf-8"?>
<!-- Generator: Adobe Illustrator 20.0.0, SVG Export Plug-In . SVG Version: 6.00 Build 0)  -->
<svg version="1.1" id="Layer_1" xmlns="http://www.w3.org/2000/svg" xmlns:xlink="http://www.w3.org/1999/xlink" x="0px" y="0px"
	 width="48px" height="48px" viewBox="0 0 48 48" style="enable-background:new 0 0 48 48;" xml:space="preserve">
<style type="text/css">
	.st0{fill:#7E8CCF;}
	.st1{fill:#C5CAE9;}
	.st2{fill:none;stroke:#FFBA57;stroke-width:4;stroke-linecap:round;stroke-miterlimit:10;}
	.st3{fill:#FF754C;}
	.st4{fill:#FFBA57;}
	.st5{fill:#5EC08F;}
	.st6{fill:#BA68C8;}
	.st7{fill:#F9A825;}
</style>
<g>
	<path class="st0" d="M4,36c0-4.1,3.9-6,7-6c2.1,0,3.9,0.3,3.9,0.3S31.4,36,36,36c3,0,4-2,4-2s1,2,4,2v8H4V36z"/>
	<path class="st1" d="M4,42c0-3.8,4.4-6,8-6c3.6,0,21,2,24,2s4-2,4-2s1,2,4,2v6H4V42z"/>
	<line class="st2" x1="35" y1="18" x2="35" y2="28"/>
	<path class="st3" d="M32.6,35.4L33,34c0.2-0.8-0.3-1.6-1.1-1.9L7.4,25.1c-0.9-0.2-1.9,0.3-2.1,1.2L5,27.5c0,0,5.6,2.2,13.8,4.6
		S32.6,35.4,32.6,35.4z"/>
	<path class="st4" d="M9,14c2.2,0,4,1.8,4,4c0,2.2-1.8,4-4,4s-4-1.8-4-4C5,15.8,6.8,14,9,14"/>
	<path class="st5" d="M25.4,23c0,0,4,1.1,4.6,3h5v4c0,0-3,0-6,0c-2,0-3.5-0.2-5-0.4L25.4,23z"/>
	<path class="st6" d="M15.4,27.4c-1.8-0.5-2.9-2.4-2.3-4.2l0.5-1.7c0.3-1,1.4-1.6,2.4-1.3l9.4,2.9L24,29.6c-1.9-0.1-4.5-1-7.4-1.9
		L15.4,27.4z"/>
	<g>
		<polygon class="st7" points="34.2,24 37,21.3 37,24.1 35,26 33,26 33,24 		"/>
	</g>
	<path class="st4" d="M35,26l5.6-5.4c0.9-0.9,2.3-0.8,3,0.3c0.6,0.8,0.4,1.9-0.3,2.6L37,29.4C36.4,30,35,30,35,30V26z"/>
	<path class="st4" d="M9,34.8C8.8,34,9.3,33.2,10.1,33l3.8-1.6l-0.4-5.6c0-0.4,0-0.7,0.2-1.1c0.5-0.8,1.6-1.1,2.4-0.6
		c0.5,0.3,0.8,0.8,0.8,1.3c0,0,0,0,0,0v0c0,0,0,0.1,0,0.1l0,6.8c0,0.3-0.1,0.6-0.2,0.8c-0.2,0.3-0.5,0.6-0.9,0.7l-5,1.9
		C10,36.1,9.2,35.6,9,34.8z"/>
</g>
</svg>
