<?xml version="1.0" encoding="utf-8"?>
<!-- Generator: Adobe Illustrator 20.0.0, SVG Export Plug-In . SVG Version: 6.00 Build 0)  -->
<svg version="1.1" id="Layer_1" xmlns="http://www.w3.org/2000/svg" xmlns:xlink="http://www.w3.org/1999/xlink" x="0px" y="0px"
	 width="48px" height="48px" viewBox="0 0 48 48" style="enable-background:new 0 0 48 48;" xml:space="preserve">
<style type="text/css">
	.st0{fill:#FFBA57;}
	.st1{fill:#5EC08F;}
	.st2{fill:#0D7C6F;}
	.st3{fill:#FF754C;}
	.st4{fill:none;stroke:#455A64;stroke-width:2;}
	.st5{fill:#546E7A;}
	.st6{fill:#7E8CCF;}
	.st7{fill:#C5CAE9;}
</style>
<g>
	<path class="st0" d="M27,18c1.7,0,3,1.3,3,3s-1.3,3-3,3s-3-1.3-3-3S25.3,18,27,18"/>
	<path class="st1" d="M10,30c0,0,3.3,0,8,0c4.9,0,11.6,1,18.4,3.1C36,35.6,32.9,39,29,40s-19,1-19,1H4V30.3L10,30z"/>
	<path class="st2" d="M25,30.6c0,0-3.2-0.6-7-0.6c-2.6,0-7.8,0-8.9,0C9.1,30.5,9,30.9,9,31c0,2.6,4,4,8,4s8-1.4,8-4
		C25,31,25,30.6,25,30.6z"/>
	<path class="st3" d="M35.9,27.6c-0.2-0.8-1.1-1.3-1.9-1c-6,1.8-10.2-2-12-4.2c0.5-7.1,5.7-7.4,6.5-7.4c0.8,0,1.5-0.7,1.5-1.5
		c0-0.8-0.7-1.5-1.5-1.5c-3.6,0-10.2,2.3-10.5,11c-1.4,1.3-3.2,3.4-4.9,6.9c-0.3,0.5-0.5,1.1-0.8,1.7l-0.2,0.5
		c1,0.5,2.7,0.9,4.8,0.9c1.6,0,2.8-0.2,3.8-0.5c0.5-0.9,0.9-1.6,1.3-2.1c0.7-0.9,1.2-1.4,1.5-1.6c1.8,0.6,4.5,1.3,7.5,1.3
		c1.2,0,2.4-0.2,3.8-0.5C35.7,29.2,36.2,28.4,35.9,27.6z"/>
	<line class="st4" x1="27" y1="9.5" x2="37" y2="31"/>
	<path class="st5" d="M28.2,12.1C29.7,11.4,28.8,7,26.4,2L21,4.5C23.3,9.5,26.7,12.8,28.2,12.1z"/>
	<path class="st5" d="M35.8,28.7c-1.5,0.8-0.7,5.4,1.8,10.3l5.4-2.7C40.5,31.4,37.3,28,35.8,28.7z"/>
	<path class="st6" d="M44,40c-3,0-4-2-4-2s-1,2-4,2s-4-2-4-2s-1,2-4,2s-4-2-4-2s-1,2-4,2s-4-2-4-2s-1,2-4,2s-4-2-4-2s-1,2-4,2v6h40
		V40z"/>
	<path class="st7" d="M44,42c-3,0-4-2-4-2s-1,2-4,2s-4-2-4-2s-1,2-4,2s-4-2-4-2s-1,2-4,2s-4-2-4-2s-1,2-4,2s-4-2-4-2s-1,2-4,2v4h40
		V42z"/>
</g>
</svg>
