<?xml version="1.0" encoding="utf-8"?>
<!-- Generator: Adobe Illustrator 20.0.0, SVG Export Plug-In . SVG Version: 6.00 Build 0)  -->
<svg version="1.1" id="Layer_1" xmlns="http://www.w3.org/2000/svg" xmlns:xlink="http://www.w3.org/1999/xlink" x="0px" y="0px"
	 width="48px" height="48px" viewBox="0 0 48 48" style="enable-background:new 0 0 48 48;" xml:space="preserve">
<style type="text/css">
	.st0{fill:#BA7F65;}
	.st1{fill:#FFB74D;}
	.st2{fill:#AB47BC;}
	.st3{fill:#BA68C8;}
</style>
<g>
	<polygon class="st0" points="4,25 8,25 10,27 16,28 18,44 4,44 	"/>
	<circle class="st1" cx="32" cy="10" r="4"/>
	<path class="st1" d="M43.9,17.1c-0.3-0.8-1.1-1.2-1.9-1L36.1,17h-2.6l-7.1-2.9L21,10l-2.6-5c-0.3-0.9-1.3-1.2-2.1-0.9l-0.2,0.1
		c-0.9,0.4-1.3,1.4-0.9,2.2l2.9,5.5c0.1,0.3,0.2,0.5,0.4,0.7l4.4,4.9l-4.6,6.6c-0.3,0.4-0.4,0.8-0.5,1.2l-1.1,6.2L10.6,37
		c-0.7,0.7-0.7,1.8,0,2.5s1.8,0.7,2.5,0l6.2-5.3l2.2-4.2l0.9,5.2l-2.8,6.5c-0.4,0.9,0,1.9,0.9,2.3C20.8,44,21,44,21.3,44
		c0.7,0,1.3-0.4,1.6-1.1l3.1-6.8c0.1-0.4,0.2-0.7,0.1-1.1v-8.2l5.2-5.9l4.8-0.5c0.4,0,0.7,0,1-0.1c1.7-0.3,3.6-0.8,5.9-1.3
		C43.8,18.8,44.2,17.9,43.9,17.1z"/>
	<polygon class="st2" points="22.2,34 26,34 26,27 20.9,27 	"/>
	<path class="st3" d="M19.6,22.2l-1.3,1.9c-0.3,0.4-0.4,0.8-0.5,1.2l-1.1,6l3.2,1.6l1.6-3l0,0l4.5-3L19.6,22.2z"/>
</g>
</svg>
