<?xml version="1.0" encoding="utf-8"?>
<!-- Generator: Adobe Illustrator 20.0.0, SVG Export Plug-In . SVG Version: 6.00 Build 0)  -->
<svg version="1.1" id="Layer_1" xmlns="http://www.w3.org/2000/svg" xmlns:xlink="http://www.w3.org/1999/xlink" x="0px" y="0px"
	 width="48px" height="48px" viewBox="0 0 48 48" style="enable-background:new 0 0 48 48;" xml:space="preserve">
<style type="text/css">
	.st0{fill:#FFBA57;}
	.st1{fill:#606FC4;}
	.st2{fill:#2D4C5C;}
	.st3{fill:#7E8CCF;}
	.st4{fill:#C5CAE9;}
	.st5{fill:#F9A825;}
</style>
<g>
	<g>
		<path class="st0" d="M31.5,18h-3.1l-4.1-0.5c0.5-2.3,1.6-5.8,4.3-6.7C30,10.3,31,8.9,31,7.4c0-0.4-0.1-0.7-0.2-1.1
			c-0.6-1.8-2.7-2.7-4.5-2.1C18.6,6.8,17.1,15.6,17,16c-0.1,0.3-0.1,0.7-0.1,1c0,0,0,0,0,0c0,3,1,4,3,4h11.6c0.8,0,1.5-0.7,1.5-1.5
			S32.3,18,31.5,18z"/>
		<path class="st0" d="M15,25.5c0,1.9,1.6,3.5,3.5,3.5s3.5-1.6,3.5-3.5S20.4,22,18.5,22S15,23.6,15,25.5"/>
		<path class="st0" d="M29,6L29,6c-1.1,0-2,0.9-2,2v22c0,1.1,0.9,2,2,2l0,0c1.1,0,2-0.9,2-2V7.5C31,6.4,30.1,6,29,6z"/>
	</g>
	<path class="st1" d="M24.4,17h-2.5l2.9-1.6C24.7,16,24.5,16.5,24.4,17z"/>
	<path class="st2" d="M31,7.4c0-0.4-0.1-0.7-0.2-1.1c-0.6-1.8-2.7-2.7-4.5-2.1c-0.8,0.3-1.6,0.6-2.3,1l3,6.5L31,7.4
		C31,7.5,31,7.5,31,7.4C31,7.4,31,7.4,31,7.4z"/>
	<path class="st3" d="M44,36c-3,0-4-2-4-2s-1,2-4,2s-4-2-4-2s-1,2-4,2s-4-2-4-2s-1,2-4,2s-4-2-4-2s-1,2-4,2s-4-2-4-2s-1,2-4,2v8h40
		V36z"/>
	<path class="st4" d="M44,38c-3,0-4-2-4-2s-1,2-4,2s-4-2-4-2s-1,2-4,2s-4-2-4-2s-1,2-4,2s-4-2-4-2s-1,2-4,2s-4-2-4-2s-1,2-4,2v6h40
		V38z"/>
	<g>
		<rect x="27" y="21" class="st5" width="4" height="2"/>
		<polygon class="st5" points="27,16 27,17.8 28.4,18 31,18 31,16 		"/>
		<path class="st5" d="M27,11.7l-1-2.1c-1.5,1.2-3.2,3.5-4,7.3l2.2,0.5C24.7,15.7,25.5,13.2,27,11.7L27,11.7z"/>
	</g>
</g>
</svg>
