<?xml version="1.0" encoding="utf-8"?>
<!-- Generator: Adobe Illustrator 20.0.0, SVG Export Plug-In . SVG Version: 6.00 Build 0)  -->
<svg version="1.1" id="Layer_1" xmlns="http://www.w3.org/2000/svg" xmlns:xlink="http://www.w3.org/1999/xlink" x="0px" y="0px"
	 width="48px" height="48px" viewBox="0 0 48 48" style="enable-background:new 0 0 48 48;" xml:space="preserve">
<style type="text/css">
	.st0{fill:#455A64;}
	.st1{fill:#FF754C;}
	.st2{fill:#E64A19;}
	.st3{fill:#FFBA57;}
	.st4{fill:#5EC08F;}
	.st5{fill:#7E8CCF;}
	.st6{fill:#C5CAE9;}
	.st7{fill:#41A571;}
	.st8{fill:none;stroke:#455A64;stroke-width:2;stroke-linecap:round;stroke-miterlimit:10;}
</style>
<g>
	<polygon class="st0" points="25.4,28.3 20.7,24.9 22.1,23.2 26.6,26.7 	"/>
	<path class="st1" d="M11.2,29l1.4-3.7c1-3.3-2.1-4.3-2.1-4.3S9.3,21,9,21c-1.4,0-2.6,0.9-3.1,2.2L4,29H11.2z"/>
	<g>
		<path class="st2" d="M11.1,24h1.8c-0.1,0.4-0.2,0.8-0.3,1.3l-2,5.3L8.1,32L11.1,24z"/>
	</g>
	<path class="st3" d="M11.5,12c1.9,0,3.5,1.6,3.5,3.5c0,1.9-1.6,3.5-3.5,3.5S8,17.4,8,15.5S9.6,12,11.5,12"/>
	<path class="st4" d="M10,29c0,0,3.3,0,8,0c4.9,0,26,0,26,0c-7.8,6.5-25.2,9.8-29,10c-4,0.3-5,0-5,0H4V29L10,29z"/>
	<path class="st5" d="M44,38c-3,0-4-2-4-2s-1,2-4,2s-4-2-4-2s-1,2-4,2s-4-2-4-2s-1,2-4,2s-4-2-4-2s-1,2-4,2s-4-2-4-2s-1,2-4,2v6h40
		V38z"/>
	<path class="st6" d="M44,40c-3,0-4-2-4-2s-1,2-4,2s-4-2-4-2s-1,2-4,2s-4-2-4-2s-1,2-4,2s-4-2-4-2s-1,2-4,2s-4-2-4-2s-1,2-4,2v4h40
		V40z"/>
	<polygon class="st7" points="25,24 21,29 38,29 	"/>
	<line class="st8" x1="23" y1="22" x2="20" y2="26"/>
	<path class="st1" d="M14.5,28c-0.4,0-0.8-0.1-1.1-0.4l-4-4c-0.6-0.6-0.6-1.5,0-2.1s1.5-0.6,2.1,0l3.2,3.2l4-2.4
		c0.7-0.4,1.6-0.2,2.1,0.5c0.4,0.7,0.2,1.6-0.5,2.1l-5,3C15,27.9,14.8,28,14.5,28z"/>
</g>
</svg>
