<?xml version="1.0" encoding="utf-8"?>
<!-- Generator: Adobe Illustrator 20.0.0, SVG Export Plug-In . SVG Version: 6.00 Build 0)  -->
<svg version="1.1" id="Layer_1" xmlns="http://www.w3.org/2000/svg" xmlns:xlink="http://www.w3.org/1999/xlink" x="0px" y="0px"
	 width="48px" height="48px" viewBox="0 0 48 48" style="enable-background:new 0 0 48 48;" xml:space="preserve">
<style type="text/css">
	.st0{fill:#7E8CCF;}
	.st1{fill:#445963;}
	.st2{fill:#B2AEAD;}
	.st3{fill:#C5CAE9;}
	.st4{fill:#FFBA57;}
	.st5{fill:#FF66A1;}
	.st6{fill:#EC407A;}
	.st7{fill:#2D4C5C;}
</style>
<g>
	<path class="st0" d="M14,37c0,0-0.2,4-4,4c-3,0-4-2-4-2s-1,2-4,2v3h12V37z"/>
	<path class="st0" d="M34,37c0,0,0.2,3,4,3c3,0,4-2,4-2s1,2,4,2v4H34V37z"/>
	<path class="st1" d="M29,31c0,0.7,0,1.3,0,2c0.5,0,3,0.2,3,3h2C34,31.1,29,31,29,31z"/>
	<path class="st1" d="M14,36h2c0-2.8,2.5-3,3-3c0-0.7,0-1.3,0-2C19,31,14,31,14,36z"/>
	<path class="st1" d="M20,31c0,0.7,0,1.3,0,2c0,0,0,0,0,0c0.1,0,3,0.1,3,4c0,1,0,1.6,0,2h2c0-0.4,0-1,0-2c0-3.8,2.9-4,3-4
		c0,0,0,0,0,0c0-0.7,0-1.3,0-2L20,31L20,31z"/>
	<rect x="23" y="39" class="st2" width="2" height="3"/>
	<path class="st3" d="M42,40c0,0-1,2-4,2c-4,0-4-6-4-6h-2c0,0,0.1,6-4,6c-1.5,0-6.5,0-8,0c-4.1,0-4-6-4-6h-2c0,0,0,7-4,7
		c-3,0-4-2-4-2s-1,2-4,2v1h44v-2C43,42,42,40,42,40z"/>
	<path class="st4" d="M25,2c1.7,0,3,1.3,3,3c0,1.7-1.3,3-3,3s-3-1.3-3-3C22,3.3,23.3,2,25,2"/>
	<path class="st4" d="M38,12.2c-0.2-0.8-1-1.3-1.8-1.1l-4.3,0.8L27,10c-0.2-0.1-5-1-5-1l-8.9-2.9c-0.8-0.3-1.6,0-2,0.7s0,1.6,0.7,2
		L21,12l0,7.4l0,0c0,0.1,0,0.2,0,0.3l0.9,4.3L20,28c0,0.9-1.1,2.2-0.4,2.7c0.3,0.2,0.6,0.3,0.9,0.3c0.4,0,0.9-0.2,1.2-0.6l1.8-2.5
		l1.2-2.5c0.2-0.4,0.4-0.8,0.3-1.2l-0.3-3L27,24v5.5c0,0.8,0.7,1.5,1.5,1.5s1.5-0.7,1.5-1.5v-6c0-0.4-0.1-0.7-0.3-1L27,19l0-5.6
		l4,1.4c0.2,0.1,0.4,0.2,0.7,0.2c0.1,0,0.2,0,0.3,0l4.8-1C37.6,13.8,38.1,13,38,12.2z"/>
	<path class="st5" d="M18,11l3,1l0,7h6l0-5.6l3,1.1v-3.3L27,10c-0.2-0.1-5-1-5-1l-4-1.3V11z"/>
	<polygon class="st6" points="25,12.8 25,19 27,19 27,13.4 	"/>
	<path class="st7" d="M27,19l0-1h-6l0,1.4l0,0c0,0.1,0,0.2,0,0.3l0.1,0.6l3.5,0.9l3.1-1.3L27,19z"/>
	<rect x="19" y="31" class="st1" width="10" height="2"/>
	<polygon class="st1" points="20,28 18.1,32 21.6,32 23.5,28 	"/>
	<rect x="27" y="28" class="st1" width="3" height="4"/>
</g>
</svg>
