<?xml version="1.0" encoding="utf-8"?>
<!-- Generator: Adobe Illustrator 20.0.0, SVG Export Plug-In . SVG Version: 6.00 Build 0)  -->
<svg version="1.1" id="Layer_1" xmlns="http://www.w3.org/2000/svg" xmlns:xlink="http://www.w3.org/1999/xlink" x="0px" y="0px"
	 width="48px" height="48px" viewBox="0 0 48 48" style="enable-background:new 0 0 48 48;" xml:space="preserve">
<style type="text/css">
	.st0{fill:#546E7A;}
	.st1{fill:#FFBA57;}
	.st2{fill:#5EC08F;}
	.st3{fill:none;stroke:#455A64;stroke-width:2;}
	.st4{fill:#76DDA6;}
	.st5{fill:#7E8CCF;}
	.st6{fill:#C5CAE9;}
	.st7{fill:#9575CD;}
	.st8{fill:#7E57C2;}
</style>
<g>
	<path class="st0" d="M5,33l38-3c0,0-8.9,12-18,12h-5C20,42,5.3,40,5,33z"/>
	<path class="st1" d="M19.5,4C21.4,4,23,5.6,23,7.5S21.4,11,19.5,11S16,9.4,16,7.5S17.6,4,19.5,4"/>
	<path class="st2" d="M44,30c0,0-3.8-5.3-11.1-4.7c-7.3,0.6-12,1.9-15.9,1.7s-7.4,0.5-7.4,0.5L5,33L44,30z"/>
	<line class="st3" x1="25.1" y1="18.2" x2="30.5" y2="20.3"/>
	<path class="st0" d="M5,24c0,0,2.1,0,3.5,0s2.4,1,4.5,1s10,0,10,0l3,3c0,0-2.6,0-8,0c-6.8,0-8.4-0.5-8.4-0.5C6.9,25.6,5,25,5,25V24
		z"/>
	<path class="st4" d="M23,25l7-6c0,0,8.8,2.9,14,11c0,0-3.7-2.9-10-3c-2.1,0-5.4,0.2-8,1L23,25z"/>
	<path class="st5" d="M44,37c-3,0-4-2-4-2s-1,2-4,2s-4-2-4-2s-1,2-4,2s-4-2-4-2s-1,2-4,2s-4-2-4-2s-1,2-4,2s-4-2-4-2s-1,2-4,2v7h4
		h32h4V37z"/>
	<path class="st6" d="M44,39c-3,0-4-2-4-2s-1,2-4,2s-4-2-4-2s-1,2-4,2s-4-2-4-2s-1,2-4,2s-4-2-4-2s-1,2-4,2s-4-2-4-2s-1,2-4,2v5h4
		h32h4V39z"/>
	<path class="st7" d="M10.5,20l2.4-5.8c0.5-1.4,1.7-2.2,3.1-2.2c1.4,0,2.2,0.9,2.7,1.6c0,0,1.1,1.8,0.7,2.9L15.5,25L13,25
		c-2.4,0-3.4-1.3-2.9-3.8C10.3,20.8,10.4,20.4,10.5,20z"/>
	<polygon class="st8" points="19.4,16.2 15.5,25 13.7,24.7 18.4,14.3 	"/>
	<path class="st1" d="M27,19.1L27,19.1c0.3-0.8-0.1-1.6-0.9-1.9l-9.1-5c-0.8-0.3-1.6,0.1-1.9,0.9l0,0c-0.3,0.8,0.1,1.6,0.9,1.9
		l9.1,5C25.8,20.2,26.7,19.9,27,19.1z"/>
	<path class="st1" d="M15.5,33c0.6,0,1.2-0.4,1.4-1l3-8c0.2-0.5,0.1-1-0.2-1.4C19.5,22.2,19,22,18.5,22h-6c-0.8,0-1.5,0.7-1.5,1.5
		s0.7,1.5,1.5,1.5h3.8l-2.2,6c-0.3,0.8,0.1,1.6,0.9,1.9C15.2,33,15.3,33,15.5,33z"/>
</g>
</svg>
