<?xml version="1.0" encoding="utf-8"?>
<!-- Generator: Adobe Illustrator 20.0.0, SVG Export Plug-In . SVG Version: 6.00 Build 0)  -->
<svg version="1.1" id="Layer_1" xmlns="http://www.w3.org/2000/svg" xmlns:xlink="http://www.w3.org/1999/xlink" x="0px" y="0px"
	 width="48px" height="48px" viewBox="0 0 48 48" style="enable-background:new 0 0 48 48;" xml:space="preserve">
<style type="text/css">
	.st0{fill:#5EC08F;}
	.st1{fill:#FF754C;}
	.st2{fill:#FFBA57;}
	.st3{fill:none;stroke:#455A64;stroke-width:2;}
	.st4{fill:#7E8CCF;}
	.st5{fill:#C5CAE9;}
</style>
<g>
	<path class="st0" d="M31,29l5.1-11h-5.4c0,0,0,0,0,0c-1.3,0-2.6,0.7-3.2,2l-4.1,9H31z"/>
	<path class="st0" d="M17.7,31l4.1-7h-6.8c-0.1,0.2-0.3,0.3-0.4,0.5L10.7,31H17.7z"/>
	<path class="st1" d="M37.1,22c-5.9,0-10.4,8-27,8c-2.5,0-4,1.5-4,4s2,4,4.5,4c19.8,0,31.5-4.3,31.5-11C42.1,24.2,39.9,22,37.1,22z"
		/>
	<path class="st2" d="M32.6,10c-1.9,0-3.5,1.6-3.5,3.5c0,1.9,1.6,3.5,3.5,3.5s3.5-1.6,3.5-3.5C36.1,11.6,34.6,10,32.6,10"/>
	<path class="st2" d="M19.1,16c-1.7,0-3,1.3-3,3c0,1.7,1.3,3,3,3s3-1.3,3-3C22.1,17.3,20.8,16,19.1,16"/>
	<line class="st3" x1="15.3" y1="24" x2="7.1" y2="40"/>
	<path class="st2" d="M21.6,26h-6c-0.8,0-1.5-0.7-1.5-1.5l0,0c0-0.8,0.7-1.5,1.5-1.5h6c0.8,0,1.5,0.7,1.5,1.5l0,0
		C23.1,25.3,22.5,26,21.6,26z"/>
	<line class="st3" x1="28.3" y1="19" x2="18.1" y2="40"/>
	<path class="st2" d="M36.6,21h-8c-0.8,0-1.5-0.7-1.5-1.5l0,0c0-0.8,0.7-1.5,1.5-1.5h8c0.8,0,1.5,0.7,1.5,1.5l0,0
		C38.1,20.3,37.5,21,36.6,21z"/>
	<path class="st4" d="M44.1,36c0-4.1-3.9-5-7-5c-2.1,0-3.9,0.3-3.9,0.3S16.7,36,12.1,36c-3,0-4-2-4-2s-1,2-4,2v8h40V36z"/>
	<path class="st5" d="M44.1,42c0-3.8-4.4-6-8-6c-3.6,0-21,2-24,2s-4-2-4-2s-1,2-4,2v6h40V42z"/>
</g>
</svg>
