<?xml version="1.0" encoding="utf-8"?>
<!-- Generator: Adobe Illustrator 20.0.0, SVG Export Plug-In . SVG Version: 6.00 Build 0)  -->
<svg version="1.1" id="Layer_1" xmlns="http://www.w3.org/2000/svg" xmlns:xlink="http://www.w3.org/1999/xlink" x="0px" y="0px"
	 width="48px" height="48px" viewBox="0 0 48 48" style="enable-background:new 0 0 48 48;" xml:space="preserve">
<style type="text/css">
	.st0{fill:#FF754C;}
	.st1{fill:#E64A19;}
	.st2{fill:#5EC08F;}
	.st3{fill:none;stroke:#455A64;stroke-width:2;}
	.st4{fill:#7E8CCF;}
	.st5{fill:#C5CAE9;}
	.st6{fill:#FFBA57;}
</style>
<g>
	<g>
		<path class="st0" d="M17.8,33h7l-3.6-10.8c-0.5-1.4-1.7-2.2-3.1-2.2c-0.3,0-4.1,0-4.1,0s-0.5,1,0.5,4.3L17.8,33z"/>
		<path class="st0" d="M39.8,33h7l-3.6-10.8c-0.5-1.4-1.7-2.2-3.1-2.2c-0.3,0-4.1,0-4.1,0s-0.5,1,0.5,4.3L39.8,33z"/>
	</g>
	<g>
		<path class="st1" d="M38,23h-1.8c0.1,0.4,0.2,0.8,0.3,1.3l2,5.3L41,31L38,23z"/>
		<path class="st1" d="M16,23h-1.8c0.1,0.4,0.2,0.8,0.3,1.3l2.1,5.3L19,31L16,23z"/>
	</g>
	<rect x="1" y="32" class="st2" width="46" height="7"/>
	<line class="st3" x1="3" y1="22" x2="10" y2="39"/>
	<path class="st4" d="M2.5,23h14.1c0.8,0,1.5-0.7,1.5-1.5l0,0c0-0.8-0.7-1.5-1.5-1.5H2.5C1.7,20,1,20.7,1,21.5l0,0
		C1,22.3,1.7,23,2.5,23z"/>
	<line class="st3" x1="25" y1="22" x2="32" y2="39"/>
	<path class="st4" d="M24.5,23h14.1c0.8,0,1.5-0.7,1.5-1.5l0,0c0-0.8-0.7-1.5-1.5-1.5H24.5c-0.8,0-1.5,0.7-1.5,1.5l0,0
		C23,22.3,23.7,23,24.5,23z"/>
	<path class="st4" d="M44,36c0,0-1,2-4,2s-4-2-4-2s-1,2-4,2s-4-2-4-2s-1,2-4,2s-4-2-4-2s-1,2-4,2s-4-2-4-2s-1,2-4,2s-4-2-4-2
		s-0.8,1.5-3,1.9V44h46v-6.1C44.8,37.5,44,36,44,36z"/>
	<path class="st5" d="M44,38c0,0-1,2-4,2s-4-2-4-2s-1,2-4,2s-4-2-4-2s-1,2-4,2s-4-2-4-2s-1,2-4,2s-4-2-4-2s-1,2-4,2s-4-2-4-2
		s-0.8,1.5-3,1.9V44h46v-4.1C44.8,39.5,44,38,44,38z"/>
	<path class="st6" d="M37.5,11c1.9,0,3.5,1.6,3.5,3.5c0,1.9-1.6,3.5-3.5,3.5S34,16.4,34,14.5C34,12.6,35.6,11,37.5,11 M15.5,11
		c-1.9,0-3.5,1.6-3.5,3.5c0,1.9,1.6,3.5,3.5,3.5s3.5-1.6,3.5-3.5C19,12.6,17.5,11,15.5,11 M2.5,23h14.1c0.8,0,1.5-0.7,1.5-1.5l0,0
		c0-0.8-0.7-1.5-1.5-1.5H2.5C1.7,20,1,20.7,1,21.5l0,0C1,22.3,1.7,23,2.5,23z M24.5,23h14.1c0.8,0,1.5-0.7,1.5-1.5l0,0
		c0-0.8-0.7-1.5-1.5-1.5H24.5c-0.8,0-1.5,0.7-1.5,1.5l0,0C23,22.3,23.7,23,24.5,23z M21.3,32c-1-0.5-4.4-2.2-7.3-3.8
		c-0.8-0.4-1.7-0.3-2.4,0.3L8.2,32H21.3z M43.3,32c-1-0.5-4.4-2.2-7.3-3.8c-0.8-0.4-1.7-0.3-2.4,0.3L30.2,32H43.3z"/>
</g>
</svg>
