<?xml version="1.0" encoding="utf-8"?>
<!-- Generator: Adobe Illustrator 20.0.0, SVG Export Plug-In . SVG Version: 6.00 Build 0)  -->
<svg version="1.1" id="Layer_1" xmlns="http://www.w3.org/2000/svg" xmlns:xlink="http://www.w3.org/1999/xlink" x="0px" y="0px"
	 width="48px" height="48px" viewBox="0 0 48 48" style="enable-background:new 0 0 48 48;" xml:space="preserve">
<style type="text/css">
	.st0{fill:none;stroke:#90A4AE;stroke-miterlimit:10;}
	.st1{fill:#FFBA57;}
	.st2{fill:#FF754C;}
	.st3{fill:#E0DDDC;}
	.st4{fill:#5EC08F;}
	.st5{fill:#7E8CCF;}
	.st6{fill:#C5CAE9;}
	.st7{fill:#E64A19;}
</style>
<g>
	<polyline class="st0" points="35,4 17,19 23,33 	"/>
	<path class="st1" d="M7,13c-1.7,0-3,1.3-3,3s1.3,3,3,3s3-1.3,3-3S8.7,13,7,13"/>
	<path class="st2" d="M20.6,34.4l-4-5c-0.3-0.3-0.7-0.4-1.1-0.4H12c0-0.2-0.1-0.3-0.2-0.5L10,24h2.5c0.3,0,0.6-0.1,0.9-0.3l4-3
		c0.7-0.5,0.8-1.4,0.3-2.1c-0.5-0.7-1.4-0.8-2.1-0.3L12,21H6.7c0,0,0,0-0.1,0H5.5C4.7,21,4,21.7,4,22.5c0,0.1,0,0.2,0,0.3
		c0,0.4,0.1,1,0.4,1.7l2.8,6c0.4,0.8,1.1,1.3,1.9,1.5C9.3,32,9.4,32,9.5,32h5.4l3.5,4.6c0.3,0.3,0.7,0.4,1.1,0.4s0.8-0.1,1.1-0.4
		C21.1,36,21.1,35,20.6,34.4z"/>
	<path class="st3" d="M23,34C22.1,15,35,3,35,3s3.5,3.3,9,26L23,34z"/>
	<path class="st4" d="M34.7,39c1.6-2.7,3.4-7,3.4-7H11c0,2.9,0.6,5.4,1.2,7H34.7z"/>
	<path class="st5" d="M44,38c-3,0-4-2-4-2s-1,2-4,2s-4-2-4-2s-1,2-4,2s-4-2-4-2s-1,2-4,2s-4-2-4-2s-1,2-4,2s-4-2-4-2s-1,2-4,2v6h40
		V38z"/>
	<path class="st6" d="M44,40c-3,0-4-2-4-2s-1,2-4,2s-4-2-4-2s-1,2-4,2s-4-2-4-2s-1,2-4,2s-4-2-4-2s-1,2-4,2s-4-2-4-2s-1,2-4,2v4h40
		V40z"/>
	<polygon class="st7" points="10,24 8,24 10,29 12,29 	"/>
</g>
</svg>
