<?xml version="1.0" encoding="utf-8"?>
<!-- Generator: Adobe Illustrator 20.0.0, SVG Export Plug-In . SVG Version: 6.00 Build 0)  -->
<svg version="1.1" id="Layer_1" xmlns="http://www.w3.org/2000/svg" xmlns:xlink="http://www.w3.org/1999/xlink" x="0px" y="0px"
	 width="48px" height="48px" viewBox="0 0 48 48" style="enable-background:new 0 0 48 48;" xml:space="preserve">
<style type="text/css">
	.st0{fill:#5EC08F;}
	.st1{fill:#48A876;}
	.st2{fill:#E5D9C5;}
	.st3{fill:#7E8CCF;}
	.st4{fill:#C5CAE9;}
	.st5{fill:#FFB74D;}
	.st6{fill:#5F6FC4;}
</style>
<g>
	<path class="st0" d="M8,38.8c0.3,2.2,7.2,3,15.4,1.8c8.2-1.2,14.7-4,14.4-6.2c-0.3-2.2-7.2-3-15.4-1.8C14.2,33.8,7.7,36.6,8,38.8z"
		/>
	<path class="st1" d="M8.3,37.9L28.5,36l1.2-4c-2.2,0-4.6,0.2-7.3,0.6C15.3,33.6,9.5,35.9,8.3,37.9z"/>
	<path class="st2" d="M44,40c-1.1,0-2-0.3-2.6-0.6c-0.9-0.5-2-0.5-2.8,0C38,39.7,37.1,40,36,40s-2-0.3-2.6-0.6c-0.9-0.5-2-0.5-2.8,0
		C30,39.7,29.1,40,28,40s-2-0.3-2.6-0.6c-0.9-0.5-2-0.5-2.8,0C22,39.7,21.1,40,20,40s-2-0.3-2.6-0.6c-0.9-0.5-2-0.5-2.8,0
		C14,39.7,13.1,40,12,40s-2-0.3-2.6-0.6c-0.9-0.5-2-0.5-2.8,0C6,39.7,5.1,40,4,40v4h40V40z"/>
	<path class="st3" d="M40,36c0,0-1,2-4,2s-4-2-4-2s-1.2,1.6-4,2.4c-1.1,0.3-2.4,0.6-4,0.6v5c4.3,0,20,0,20,0v-6C41,38,40,36,40,36z"
		/>
	<path class="st4" d="M44,40c-3,0-4-2-4-2s-1,2-4,2s-4-2-4-2s-1,2-4,2s-4-1-4-1s-1.3,5-8,5s28,0,28,0V40z"/>
	<path class="st5" d="M24,4c1.7,0,3,1.3,3,3s-1.3,3-3,3s-3-1.3-3-3S22.3,4,24,4"/>
	<path class="st5" d="M36.5,14h-4.8L10.9,9c-0.8-0.2-1.6,0.3-1.8,1.1c-0.2,0.8,0.3,1.6,1.1,1.8l9.9,2.4V22l0,0v7l-3.7,5.6
		c-0.5,0.7-0.3,1.6,0.4,2.1c0.3,0.2,0.5,0.3,0.8,0.3c0.5,0,1-0.2,1.2-0.7l4-6c0.2-0.2,0.3-0.5,0.3-0.8l1-4.6l3,4v5.6
		c0,0.8,0.7,1.5,1.5,1.5s1.5-0.7,1.5-1.5v-6c0-0.3-0.1-0.5-0.2-0.7L27,22.7V16l4.1,1c0.1,0,0.3,0.1,0.4,0.1h5c0.8,0,1.5-0.7,1.5-1.5
		S37.3,14,36.5,14z"/>
	<path class="st6" d="M20,22L20,22v7h3.1l0.9-4.1l3,4V29l2.9-1c0-0.1-0.1-0.2-0.1-0.3L27,22H20z"/>
</g>
</svg>
