<?xml version="1.0" encoding="utf-8"?>
<!-- Generator: Adobe Illustrator 20.0.0, SVG Export Plug-In . SVG Version: 6.00 Build 0)  -->
<svg version="1.1" id="Layer_1" xmlns="http://www.w3.org/2000/svg" xmlns:xlink="http://www.w3.org/1999/xlink" x="0px" y="0px"
	 width="48px" height="48px" viewBox="0 0 48 48" style="enable-background:new 0 0 48 48;" xml:space="preserve">
<style type="text/css">
	.st0{fill:none;stroke:#FF754C;stroke-width:2;stroke-miterlimit:10;}
	.st1{fill:#FFB74D;}
	.st2{fill:#F9A825;}
	.st3{fill:#5F6FC4;}
</style>
<g>
	<line class="st0" x1="8" y1="23.8" x2="13.4" y2="13"/>
	<circle class="st1" cx="7.5" cy="22.5" r="3.5"/>
	<path class="st1" d="M14.1,35l-5.8,3.8c-0.7,0.5-1.6,0.3-2.1-0.4c-0.5-0.7-0.3-1.6,0.4-2.1l5.1-3.4c0.1-0.1,0.2-0.2,0.2-0.4v-7.9
		c0-0.8,0.3-1.7,1.6-2.5l3.3,1.4L15,33.4C14.9,33.9,14.7,34.6,14.1,35z"/>
	<path class="st2" d="M35.9,20l-7.5,5c-0.9,0.6-2.2,0.4-2.8-0.6c-0.6-0.9-0.9-3,0-3.6l7.4-3.7l1-7.5c0.2-1.1,1.3-1.8,2.4-1.6
		c1.1,0.2,1.8,1.3,1.6,2.4l-1.1,8.3C36.7,19.2,36.4,19.7,35.9,20z"/>
	<g>
		<path class="st1" d="M41.9,18.3L36,22l-7-1c-0.5-1.8-2.9-2.3-4.8-1.8l-9.7,2.6c-2.1,0.5-2.9,2.5-2.4,4.3l0,0
			c0.5,1.8,2.5,2.9,4.3,2.4L26,26l9.7,0c0.4,0,0.9-0.1,1.3-0.3l7.1-4c0.9-0.6,1.2-1.9,0.6-2.8C44.1,18,42.8,17.7,41.9,18.3z"/>
	</g>
	<path class="st2" d="M25,24l-8.7,2.3l-0.5,2.3c0.2,0,0.4-0.1,0.7-0.1l9.4-2.5l0.1,0L25,24z"/>
	<g>
		<path class="st3" d="M26,26h3v-5c-0.5-1.8-2.9-2.3-4.8-1.8l-1.7,0.5L26,26z"/>
	</g>
	<path class="st3" d="M6,24h4.6c0.3-0.6,0.4-1.3,0.3-2H4.1l0,0c0,0.2,0,0.4,0,0.6c0,0,0,0,0,0c0,0.2,0,0.4,0.1,0.6
		c0,0.1,0,0.1,0,0.2c0,0.1,0.1,0.3,0.1,0.4c0.1,0.2,0.2,0.4,0.3,0.6C4.7,24.6,4.9,24.8,5,25C5,24.4,5.5,24,6,24z"/>
	<path class="st3" d="M5,22c-0.4,0-0.7,0.1-1,0.3c0,0.7,0.1,1.5,0.6,2.2c0.4,0.6,0.9,1,1.5,1.3C6.6,25.3,7,24.7,7,24
		C7,22.9,6.1,22,5,22z"/>
</g>
</svg>
