<?xml version="1.0" encoding="utf-8"?>
<!-- Generator: Adobe Illustrator 20.0.0, SVG Export Plug-In . SVG Version: 6.00 Build 0)  -->
<svg version="1.1" id="Layer_1" xmlns="http://www.w3.org/2000/svg" xmlns:xlink="http://www.w3.org/1999/xlink" x="0px" y="0px"
	 width="48px" height="48px" viewBox="0 0 48 48" style="enable-background:new 0 0 48 48;" xml:space="preserve">
<style type="text/css">
	.st0{fill:#F9A825;}
	.st1{fill:#5E35B1;}
	.st2{fill:#FFB74D;}
	.st3{fill:#546E7A;}
	.st4{fill:#FF754C;}
	.st5{fill:#FFBA57;}
	.st6{fill:#9575CD;}
	.st7{fill:#7E57C2;}
</style>
<g>
	<path class="st0" d="M32.6,21.1l-4.7-2.4L22,14l-2,3l5.9,4.1c0.1,0.1,0.2,0.2,0.4,0.3l5.9,2.9L32.6,21.1z M12,41
		c-0.2,0-0.4,0-0.7-0.1c-1-0.4-1.6-1.5-1.2-2.6l2.3-6.5l1.4-7.5l6.1-1.7l-6,17C13.6,40.5,12.8,41,12,41z"/>
	<polygon class="st1" points="17.3,30 19.9,22.6 13.8,24.3 12.9,29 	"/>
	<path class="st2" d="M22.5,4C24.4,4,26,5.6,26,7.5S24.4,11,22.5,11S19,9.4,19,7.5S20.6,4,22.5,4z"/>
	<rect x="16.9" y="25" transform="matrix(0.124 -0.9923 0.9923 0.124 3.1105 55.5209)" class="st3" width="32.2" height="2"/>
	<path class="st3" d="M34.3,44h-7c0.6-5.4,3.2-5.8,3.6-9h2C32.7,38.2,34.6,38.3,34.3,44z"/>
	<path class="st4" d="M43,38c0,0-3,3-19,3c-5,0-19,0-19,0c-0.6,0-1,0.4-1,1c0,1,4,2,8,2h24c4,0,8-4,8-5C44,38.4,43.6,38,43,38z"/>
	<path class="st5" d="M35.9,9.4c-0.4-0.7-1.3-1-2-0.6l-5.7,3.1L22.7,13c-1.1,0-2.5,0-2.8,0c-1.4,0-2.6,0.9-3.1,2.2L13.9,24
		c-0.4,1.2-0.1,2.4,0.7,3.2l0,0l5.4,5.5V39c0,1.1,0.9,2,2,2s2-0.9,2-2v-7c0-0.5-0.2-0.9-0.5-1.3L20,26.1c0,0,0,0,0-0.1l3.4-8.7
		c0-0.1,0.1-0.2,0.1-0.3l5.4-2.2c0.2,0,0.3-0.1,0.4-0.2l5.9-3.3C36,11,36.3,10.1,35.9,9.4z"/>
	<path class="st6" d="M21,15c0-2,1.7-2,1.7-2c-1.1,0-2.5,0-2.8,0c-1.4,0-2.6,0.9-3.1,2.2L13.9,24c-0.4,1.2-0.1,2.4,0.7,3.2l0,0
		l2.8,2.8l3.8-2.4c0,0-1.2-1.5-1.2-1.6l3.4-8.7c0-0.1,0.1-0.2,0.1-0.3C23.5,17,21,17.4,21,15z"/>
	<path class="st7" d="M23.5,17L23.5,17c-0.1,0-1,0.1-1.7-0.3l-3.1,7.8L20,26l3.4-8.7C23.4,17.2,23.5,17.1,23.5,17z"/>
</g>
</svg>
