<?xml version="1.0" encoding="utf-8"?>
<!-- Generator: Adobe Illustrator 20.0.0, SVG Export Plug-In . SVG Version: 6.00 Build 0)  -->
<svg version="1.1" id="Layer_1" xmlns="http://www.w3.org/2000/svg" xmlns:xlink="http://www.w3.org/1999/xlink" x="0px" y="0px"
	 width="48px" height="48px" viewBox="0 0 48 48" style="enable-background:new 0 0 48 48;" xml:space="preserve">
<style type="text/css">
	.st0{fill:#E64A19;}
	.st1{fill:#F9A825;}
	.st2{fill:#FFB74D;}
	.st3{fill:#FFBA57;}
	.st4{fill:#BA68C8;}
	.st5{fill:#AB47BC;}
	.st6{fill:#2D4C5C;}
	.st7{fill:#FF754C;}
</style>
<g>
	<path class="st0" d="M10,37.9l-5,6c0,0,6,1,10-4L10,37.9z"/>
	<path class="st1" d="M12,37.9c-0.7,0-1.4-0.4-1.8-1.1c-0.5-1-0.1-2.2,0.9-2.7l6.9-3.4v-6.8c0-1.1,0.9-2,2-2s3,0.9,3,2l-1,8
		c0,0.8-0.4,1.5-1.1,1.8l-8,4C12.6,37.8,12.3,37.9,12,37.9z"/>
	<path class="st2" d="M33.5,7c1.9,0,3.5,1.6,3.5,3.5S35.4,14,33.5,14S30,12.4,30,10.5S31.6,7,33.5,7z"/>
	<path class="st3" d="M41.5,23.3L33,15.8l-0.1-0.1l-3.6-2.5c-0.2-0.1-0.4-0.2-0.6-0.2l-6.6-1.3l-3.2-5.8c-0.3-0.8-1.2-1.1-2-0.8
		c-0.8,0.3-1.1,1.2-0.8,2l3.5,6.5c0.2,0.5,0.6,0.8,1.1,0.9l4.6,0.9l-6.1,5.5c-1.5,1.3-1.6,3.5-0.3,4.9c0.4,0.4,0.9,0.7,1.4,0.9
		l6.6,4.2L26,37.6c-0.2,1.1,0.6,2.1,1.7,2.3c0.1,0,0.2,0,0.3,0c1,0,1.8-0.7,2-1.7l1-8c0.1-0.8-0.2-1.6-0.9-2L25,25l6.9-6.2l7.6,6.7
		c0.3,0.3,0.6,0.4,1,0.4s0.8-0.2,1.1-0.5C42.2,24.8,42.1,23.8,41.5,23.3z"/>
	<path class="st4" d="M38,20.2l-5-4.4l-0.1-0.1l-3.6-2.5c-0.2-0.1-0.4-0.2-0.6-0.2l-6.6-1.3c0,0-1.9,2.7-1.4,2.8l4.6,0.9l-6.1,5.5
		c-1.5,1.3-1.6,3.5-0.3,4.9c0.4,0.4,0.9,0.7,1.4,0.9L25,25l7-6l4,3.4L38,20.2z"/>
	<path class="st5" d="M22,25l3,0l7-6l-1.5-1.4L22,25z"/>
	<path class="st6" d="M19.2,20.9c-1.5,1.3-1.6,3.5-0.3,4.9c0.4,0.4,0.9,0.7,1.4,0.9L25,25L19.2,20.9z"/>
	<path class="st7" d="M32.1,42c-18,0-26.1-4.3-26.5-4.5c-0.6-0.3-0.7-0.9-0.5-1.4c0.3-0.5,0.9-0.6,1.4-0.4
		c0.1,0.1,10.5,4.7,35.4,3.9c0.6,0,1,0.4,1.1,0.9s-0.4,1-0.9,1.1C38.5,41.9,35.1,42,32.1,42z"/>
</g>
</svg>
