<?xml version="1.0" encoding="utf-8"?>
<!-- Generator: Adobe Illustrator 20.0.0, SVG Export Plug-In . SVG Version: 6.00 Build 0)  -->
<svg version="1.1" id="Layer_1" xmlns="http://www.w3.org/2000/svg" xmlns:xlink="http://www.w3.org/1999/xlink" x="0px" y="0px"
	 width="48px" height="48px" viewBox="0 0 48 48" style="enable-background:new 0 0 48 48;" xml:space="preserve">
<style type="text/css">
	.st0{fill:#FFBA57;}
	.st1{fill:#7E8CCF;}
	.st2{fill:#C5CAE9;}
</style>
<g>
	<g>
		<path class="st0" d="M35.5,22c2.5,0,4.5,2,4.5,4.5S38,31,35.5,31S31,29,31,26.5S33,22,35.5,22"/>
		<path class="st0" d="M9.8,27.8l9.5-4.3l2.6,5.8L9,37h24.3L21.7,19.9c-0.5-0.8-1.6-1.1-2.5-0.7l-11,5c-1,0.5-1.4,1.6-1,2.6
			C7.6,27.8,8.8,28.3,9.8,27.8z"/>
	</g>
	<path class="st1" d="M44,36c-3,0-4-2-4-2s-1,2-4,2s-4-2-4-2s-1,2-4,2s-4-2-4-2s-1,2-4,2s-4-2-4-2s-1,2-4,2s-4-2-4-2s-1,2-4,2v8h40
		V36z"/>
	<path class="st2" d="M44,38c-3,0-4-2-4-2s-1,2-4,2s-4-2-4-2s-1,2-4,2s-4-2-4-2s-1,2-4,2s-4-2-4-2s-1,2-4,2s-4-2-4-2s-1,2-4,2v6h40
		V38z"/>
</g>
</svg>
