<?xml version="1.0" encoding="utf-8"?>
<!-- Generator: Adobe Illustrator 20.0.0, SVG Export Plug-In . SVG Version: 6.00 Build 0)  -->
<svg version="1.1" id="Layer_1" xmlns="http://www.w3.org/2000/svg" xmlns:xlink="http://www.w3.org/1999/xlink" x="0px" y="0px"
	 width="48px" height="48px" viewBox="0 0 48 48" style="enable-background:new 0 0 48 48;" xml:space="preserve">
<style type="text/css">
	.st0{fill:#FFBA57;}
	.st1{fill:#FF754C;}
	.st2{fill:#7E8CCF;}
	.st3{fill:#C5CAE9;}
</style>
<g>
	<g>
		<path class="st0" d="M31.4,18c-1.9,0.1-3.4,1.7-3.4,3.6c0.1,1.9,1.7,3.4,3.6,3.4c1.9-0.1,3.4-1.7,3.4-3.6
			C34.9,19.5,33.3,17.9,31.4,18"/>
		<path class="st0" d="M23.5,39c-0.4,0-0.8-0.1-1.1-0.4c-0.6-0.6-0.6-1.5,0-2.1l9.2-9.2l5.4-2.7V10.5C37,9.7,37.7,9,38.5,9
			S40,9.7,40,10.5v15.9l-6.6,3.3l-8.8,8.8C24.3,38.9,23.9,39,23.5,39z"/>
		<path class="st0" d="M13.4,18c-1.9,0.1-3.4,1.7-3.4,3.6s1.7,3.4,3.6,3.4c1.9-0.1,3.4-1.7,3.4-3.6C16.9,19.5,15.3,17.9,13.4,18"/>
		<path class="st0" d="M5.5,39c-0.4,0-0.8-0.1-1.1-0.4c-0.6-0.6-0.6-1.5,0-2.1l9.2-9.2l5.4-2.7V10.5C19,9.7,19.7,9,20.5,9
			S22,9.7,22,10.5v15.9l-6.6,3.3l-8.8,8.8C6.3,38.9,5.9,39,5.5,39z"/>
	</g>
	<g>
		<path class="st1" d="M40,25l-3-0.4l-5.4,2.7l-1.5,1.5c0,0.1-0.1,0.1-0.3,0.3c1.1,0.2,2.1,1,2.1,1s4.3,2.5,0,11h8
			C44.6,33.4,40,25,40,25z"/>
		<path class="st1" d="M22,25l-3-0.4l-5.4,2.7l-1.5,1.5c0,0.1-0.1,0.1-0.3,0.3c1.1,0.2,2.1,1,2.1,1s4.3,2.5,0,11h8
			C26.6,33.4,22,25,22,25z"/>
	</g>
	<path class="st2" d="M44,36c-3,0-4-2-4-2s-1,2-4,2s-4-2-4-2s-1,2-4,2s-4-2-4-2s-1,2-4,2s-4-2-4-2s-1,2-4,2s-4-2-4-2s-1,2-4,2v8h40
		V36z"/>
	<path class="st3" d="M44,38c-3,0-4-2-4-2s-1,2-4,2s-4-2-4-2s-1,2-4,2s-4-2-4-2s-1,2-4,2s-4-2-4-2s-1,2-4,2s-4-2-4-2s-1,2-4,2v6h40
		V38z"/>
</g>
</svg>
