<?xml version="1.0" encoding="utf-8"?>
<!-- Generator: Adobe Illustrator 20.0.0, SVG Export Plug-In . SVG Version: 6.00 Build 0)  -->
<svg version="1.1" id="Layer_1" xmlns="http://www.w3.org/2000/svg" xmlns:xlink="http://www.w3.org/1999/xlink" x="0px" y="0px"
	 width="48px" height="48px" viewBox="0 0 48 48" style="enable-background:new 0 0 48 48;" xml:space="preserve">
<style type="text/css">
	.st0{fill:#1565C0;}
	.st1{fill:#FFBA57;}
	.st2{fill:#7E8CCF;}
	.st3{fill:#C5CAE9;}
</style>
<g>
	<path class="st0" d="M12.5,9c1.9,0,3.5,1.6,3.5,3.5S14.4,16,12.5,16C10.6,16,9,14.4,9,12.5S10.6,9,12.5,9"/>
	<g>
		<circle class="st1" cx="22" cy="20" r="4"/>
		<g>
			<path class="st1" d="M40.5,31.1L9,22.5V14c0-1.1-0.9-2-2-2s-2,0.9-2,2v10c0,0.9,0.6,1.7,1.4,1.9l8.3,3.3L11.1,42h10.9l3.2-10.3
				L32,33l7.5,2c0.2,0,0.3,0.1,0.5,0.1c0.9,0,1.7-0.6,1.9-1.5C42.2,32.4,41.6,31.3,40.5,31.1z"/>
		</g>
	</g>
	<path class="st2" d="M44,36c-3,0-4-2-4-2s-1,2-4,2s-4-2-4-2s-1,2-4,2s-4-2-4-2s-1,2-4,2s-4-2-4-2s-1,2-4,2s-4-2-4-2s-1,2-4,2v8h40
		V36z"/>
	<path class="st3" d="M44,38c-3,0-4-2-4-2s-1,2-4,2s-4-2-4-2s-1,2-4,2s-4-2-4-2s-1,2-4,2s-4-2-4-2s-1,2-4,2s-4-2-4-2s-1,2-4,2v6h40
		V38z"/>
</g>
</svg>
