<?xml version="1.0" encoding="utf-8"?>
<!-- Generator: Adobe Illustrator 20.0.0, SVG Export Plug-In . SVG Version: 6.00 Build 0)  -->
<svg version="1.1" id="Layer_1" xmlns="http://www.w3.org/2000/svg" xmlns:xlink="http://www.w3.org/1999/xlink" x="0px" y="0px"
	 width="48px" height="48px" viewBox="0 0 48 48" style="enable-background:new 0 0 48 48;" xml:space="preserve">
<style type="text/css">
	.st0{fill:#FFB74D;}
	.st1{fill:#E0DDDC;}
	.st2{fill:#BAC8CE;}
	.st3{fill:#7E8CCF;}
	.st4{fill:#C5CAE9;}
	.st5{fill:#FF754C;}
	.st6{fill:#E64A19;}
	.st7{fill:#5EC08F;}
</style>
<g>
	<path class="st0" d="M42.1,21.8c0-0.1,0-0.2,0-0.3c0-0.8-0.7-1.5-1.5-1.5h-1.2c0,0,0,0-0.1,0h-5.4l-3.4-2.7
		c-0.7-0.5-1.6-0.4-2.1,0.3s-0.4,1.6,0.3,2.1l3.8,3c0.3,0.2,0.6,0.3,0.9,0.3h2.7c0,0-1.9,4.8-2,5h-3.6c-0.4,0-0.9,0.1-1.1,0.4
		l-3.8,5.1c-0.6,0.6-0.6,1.5,0,2.1c0.3,0.3,0.7,0.4,1.1,0.4s0.8-0.1,1.1-0.4l3.3-4.6h6c1.1,0,2-0.7,2.3-1.6l2.2-6.1
		C41.9,22.6,42.1,22.2,42.1,21.8z"/>
	<path class="st0" d="M39.1,12c1.7,0,3,1.3,3,3s-1.3,3-3,3s-3-1.3-3-3S37.4,12,39.1,12z"/>
	<path class="st1" d="M21.6,4C30.3,14.5,22,36.9,22,36.9l-18-7C4,29.9,11.6,10,21.6,4z"/>
	<path class="st2" d="M25.6,18.9C19,21.7,9.9,25.5,5,27.5c-0.6,1.5-1,2.4-1,2.4L4.3,30c4.1-1.7,13.9-5.9,21.2-8.9
		C25.5,20.4,25.5,19.6,25.6,18.9z M13.4,33.6c3.5-1.4,7.6-3.1,10.9-4.5c0.2-0.8,0.3-1.5,0.5-2.4c-4.1,1.7-9.8,4-14.1,5.8L13.4,33.6z
		 M24.9,11.7c-4.3,1.8-10.5,4.3-14.8,6.1c-0.6,0.9-1.1,1.9-1.6,2.8c4.2-1.7,11.6-4.7,16.8-6.9C25.1,13.1,25,12.4,24.9,11.7z"/>
	<path class="st2" d="M23,37.2l-1.9-0.7c0.1-0.2,8.6-19.9,0.5-32.5l1.7-1C31.7,16.3,23.4,36.3,23,37.2z"/>
	<path class="st3" d="M44.1,38c-3,0-4-2-4-2s-1,2-4,2s-4-2-4-2s-1,2-4,2s-4-2-4-2s-1,2-4,2s-4-2-4-2s-1,2-4,2s-4-2-4-2s-1,2-4,2v6
		h40V38z"/>
	<path class="st4" d="M44.1,40c-3,0-4-2-4-2s-1,2-4,2s-4-2-4-2s-1,2-4,2s-4-2-4-2s-1,2-4,2s-4-2-4-2s-1,2-4,2s-4-2-4-2s-1,2-4,2v4
		h40V40z"/>
	<path class="st5" d="M40.6,20h-1.2c0,0,0,0-0.1,0h-2.2l-1,3c0,0-1.9,4.8-2,5h-3V31l0,0h6c1.1,0,2-0.7,2.3-1.6l2.2-6.1
		c0.3-0.7,0.5-1.1,0.5-1.5c0-0.1,0-0.2,0-0.3C42.1,20.7,41.4,20,40.6,20z"/>
	<polygon class="st6" points="36.1,23 38.1,23 36.1,28 34.1,28 	"/>
	<path class="st7" d="M34.1,28C34.1,28,34.1,28,34.1,28l-3,0V31l0,0h6c1.1,0,2-0.7,2.3-1.6l0.5-1.4H34.1z"/>
</g>
</svg>
